<svg width="40" height="40" viewBox="0 0 40 40" fill="none" xmlns="http://www.w3.org/2000/svg">
<path d="M38.0666 14.9219C37.796 14.9219 37.5285 14.9787 37.2813 15.0885L30.625 18.0469V14.8438C30.625 12.2549 28.5263 10.1563 25.9375 10.1563H24.375C24.375 4.54711 19.8279 0 14.2188 0H4.6875C2.96164 0 1.5625 1.39914 1.5625 3.125C1.5625 4.85086 2.96164 6.25 4.6875 6.25H14.2188C16.3761 6.25 18.125 7.99891 18.125 10.1563H4.6875C2.09867 10.1563 0 12.2549 0 14.8438V35.3125C0 37.9013 2.09867 40 4.6875 40H25.9375C28.5263 40 30.625 37.9013 30.625 35.3125V32.1094L37.2813 35.0677C37.5285 35.1776 37.796 35.2344 38.0666 35.2344C39.1344 35.2344 40 34.3688 40 33.3009V16.8553C40 15.7875 39.1344 14.9219 38.0666 14.9219ZM24.375 31.4063C24.375 32.7007 23.3257 33.75 22.0313 33.75H8.59375C7.2993 33.75 6.25 32.7007 6.25 31.4063C6.25 30.1119 7.2993 29.0625 8.59375 29.0625H22.0313C23.3257 29.0625 24.375 30.1118 24.375 31.4063Z" fill="#B5121B"/>
</svg>
