<svg width="40" height="41" viewBox="0 0 40 41" fill="none" xmlns="http://www.w3.org/2000/svg">
<path d="M28.3941 0H11.6258C4.34216 0 0 4.34216 0 11.6258V28.3741C0 35.6778 4.34216 40.0199 11.6258 40.0199H28.3741C35.6578 40.0199 39.9999 35.6778 39.9999 28.3941V11.6258C40.0199 4.34216 35.6778 0 28.3941 0ZM20.01 27.7738C15.7278 27.7738 12.2461 24.2921 12.2461 20.01C12.2461 15.7278 15.7278 12.2461 20.01 12.2461C24.2921 12.2461 27.7738 15.7278 27.7738 20.01C27.7738 24.2921 24.2921 27.7738 20.01 27.7738ZM31.8559 9.76487C31.7558 10.005 31.6158 10.2251 31.4357 10.4252C31.2356 10.6053 31.0155 10.7454 30.7753 10.8454C30.5352 10.9455 30.2751 11.0055 30.015 11.0055C29.4747 11.0055 28.9744 10.8054 28.5942 10.4252C28.4142 10.2251 28.2741 10.005 28.174 9.76487C28.074 9.52475 28.014 9.26462 28.014 9.00449C28.014 8.74436 28.074 8.48423 28.174 8.24411C28.2741 7.98398 28.4142 7.78388 28.5942 7.58378C29.0545 7.12355 29.7548 6.90344 30.3951 7.04351C30.5352 7.06352 30.6553 7.10354 30.7753 7.16357C30.8954 7.20359 31.0155 7.26362 31.1355 7.34366C31.2356 7.40369 31.3356 7.50374 31.4357 7.58378C31.6158 7.78388 31.7558 7.98398 31.8559 8.24411C31.9559 8.48423 32.016 8.74436 32.016 9.00449C32.016 9.26462 31.9559 9.52475 31.8559 9.76487Z" fill="#ddae17"/>
</svg>
