<svg width="40" height="41" viewBox="0 0 40 41" fill="none" xmlns="http://www.w3.org/2000/svg">
<path fill-rule="evenodd" clip-rule="evenodd" d="M40 40.5H32V26.502C32 22.662 30.306 20.5195 27.268 20.5195C23.962 20.5195 22 22.752 22 26.502V40.5H14V14.5H22V17.4238C22 17.4238 24.51 13.0195 30.166 13.0195C35.824 13.0195 40 16.4722 40 23.6162V40.5ZM4.884 10.3418C2.186 10.3418 0 8.13792 0 5.41992C0 2.70392 2.186 0.5 4.884 0.5C7.58 0.5 9.76599 2.70392 9.76599 5.41992C9.76799 8.13792 7.58 10.3418 4.884 10.3418ZM0 40.5H10V14.5H0V40.5Z" fill="#0A66C2"/>
</svg>
