<svg width="40" height="33" viewBox="0 0 40 33" fill="none" xmlns="http://www.w3.org/2000/svg">
<path fill-rule="evenodd" clip-rule="evenodd" d="M12.58 32.4998C27.674 32.4998 35.93 20.187 35.93 9.51058C35.93 9.16008 35.93 8.81221 35.906 8.46565C37.512 7.32357 38.898 5.90556 40 4.28304C38.504 4.93678 36.914 5.3655 35.288 5.55452C37 4.54438 38.282 2.95739 38.896 1.08479C37.284 2.02601 35.522 2.69029 33.684 3.04671C30.576 -0.206231 25.378 -0.363837 22.072 2.69612C19.942 4.66914 19.036 7.61089 19.698 10.4168C13.1 10.09 6.952 7.02218 2.784 1.97542C0.606 5.66744 1.72 10.3888 5.326 12.7596C4.02 12.7222 2.742 12.376 1.6 11.7498V11.8524C1.602 15.698 4.356 19.0093 8.184 19.7713C6.976 20.0962 5.708 20.1433 4.48 19.909C5.554 23.2013 8.636 25.4563 12.146 25.5213C9.24 27.77 5.65 28.9911 1.954 28.9871C1.302 28.9852 0.65 28.9477 0 28.8709C3.754 31.2417 8.12 32.4999 12.58 32.494" fill="#4ea3e7"/>
</svg>
