<svg width="40" height="29" viewBox="0 0 40 29" fill="none" xmlns="http://www.w3.org/2000/svg">
<path fill-rule="evenodd" clip-rule="evenodd" d="M15.9769 19.6722V8.4486C19.9613 10.3235 23.0472 12.1346 26.6969 14.0873C23.6867 15.7567 19.9613 17.6298 15.9769 19.6722ZM38.182 2.86657C37.4947 1.96105 36.3233 1.25618 35.0762 1.02282C31.4105 0.326718 8.54197 0.324738 4.8783 1.02282C3.87822 1.2103 2.98767 1.66346 2.22266 2.36754C-1.00072 5.35934 0.00933236 21.4034 0.786294 24.0023C1.11301 25.1272 1.53538 25.9385 2.0673 26.4711C2.75262 27.1751 3.69093 27.6599 4.76872 27.8773C7.78691 28.5016 23.3361 28.8507 35.0124 27.9711C36.0882 27.7836 37.0404 27.2832 37.7915 26.5492C40.7718 23.5693 40.5687 6.62427 38.182 2.86657Z" fill="white"/>
</svg>
