<svg width="201" height="52" viewBox="0 0 201 52" fill="none" xmlns="http://www.w3.org/2000/svg">
<path d="M14.015 31.1084C14.015 29.9995 14.2242 28.9668 14.6426 28.0106C15.0609 27.0477 15.6652 26.2143 16.4555 25.5104C17.2523 24.7999 18.2219 24.242 19.3641 23.837C20.5129 23.4319 21.8111 23.2293 23.2588 23.2293C24.5271 23.2293 25.6893 23.3588 26.7451 23.6178C27.8076 23.8702 28.7937 24.2586 29.7035 24.7833L28.2492 27.1739C27.977 26.9946 27.6615 26.8352 27.3029 26.6958C26.951 26.5563 26.5725 26.4401 26.1674 26.3471C25.7689 26.2475 25.3539 26.1711 24.9223 26.118C24.4973 26.0649 24.0756 26.0383 23.6572 26.0383C22.6479 26.0383 21.748 26.1645 20.9578 26.4168C20.1676 26.6625 19.5002 27.0112 18.9557 27.4627C18.4178 27.9077 18.0061 28.4422 17.7205 29.0665C17.4416 29.684 17.3021 30.3647 17.3021 31.1084C17.3021 31.8788 17.4482 32.586 17.7404 33.2301C18.0326 33.8743 18.4543 34.4321 19.0055 34.9036C19.5633 35.3684 20.2406 35.7336 21.0375 35.9993C21.841 36.2583 22.7475 36.3877 23.7568 36.3877C24.215 36.3877 24.6699 36.3545 25.1215 36.2881C25.573 36.2217 26.008 36.1321 26.4264 36.0192C26.8514 35.8997 27.2598 35.7602 27.6516 35.6008C28.0434 35.4348 28.4086 35.2555 28.7473 35.0629L30.2016 37.4536C29.3516 37.9981 28.3687 38.4264 27.2531 38.7385C26.1375 39.044 24.9521 39.1967 23.6971 39.1967C22.0967 39.1967 20.6922 38.9909 19.4836 38.5792C18.275 38.1608 17.2656 37.5897 16.4555 36.8659C15.6453 36.1354 15.0344 35.2788 14.6227 34.2959C14.2176 33.3065 14.015 32.244 14.015 31.1084ZM33.2895 23.4186H36.467V38.9875H33.2895V23.4186ZM40.4813 23.4186H43.6389L53.3408 28.4987V23.4186H56.4984V38.9875H53.3408V31.8456L43.6389 26.7954V38.9875H40.4813V23.4186ZM60.9012 23.4186H74.1592V26.1877H64.0588V29.2956H73.0037V31.8954H64.0588V36.2284H74.3684V38.9875H60.9012V23.4186ZM83.1838 23.4186H86.5307L94.0611 38.9875H90.7441L89.499 36.3678H80.4047L79.1994 38.9875H75.8725L83.1838 23.4186ZM88.2539 33.768L84.8871 26.6958L81.61 33.768H88.2539ZM96.4816 23.4186H104.401C105.596 23.4186 106.632 23.5448 107.508 23.7971C108.385 24.0428 109.112 24.4014 109.69 24.8729C110.268 25.3444 110.696 25.9188 110.975 26.5961C111.26 27.2735 111.403 28.0405 111.403 28.8971C111.403 29.4749 111.333 30.026 111.194 30.5506C111.054 31.0686 110.839 31.5467 110.546 31.985C110.261 32.4233 109.899 32.8151 109.461 33.1604C109.022 33.4991 108.508 33.7813 107.917 34.0071L111.304 38.9875H107.439L104.51 34.5649H104.421L99.6393 34.5549V38.9875H96.4816V23.4186ZM104.48 31.8256C105.078 31.8256 105.599 31.7559 106.044 31.6165C106.496 31.477 106.871 31.2811 107.17 31.0288C107.475 30.7764 107.701 30.4709 107.847 30.1124C108 29.7471 108.076 29.342 108.076 28.8971C108.076 28.0272 107.777 27.3565 107.18 26.885C106.582 26.4069 105.682 26.1678 104.48 26.1678H99.6393V31.8256H104.48ZM119.84 26.1877H114.093V23.4186H128.745V26.1877H122.998V38.9875H119.84V26.1877Z" fill="white"/>
<g clip-path="url(#clip0_3_501)">
<path d="M186.214 21.144C185.955 21.144 185.699 21.1984 185.463 21.3034L179.098 24.1323V21.0693C179.098 18.5938 177.091 16.5869 174.615 16.5869H173.121C173.121 11.2232 168.773 6.875 163.409 6.875H154.295C152.645 6.875 151.307 8.21293 151.307 9.86328C151.307 11.5136 152.645 12.8516 154.295 12.8516H163.409C165.472 12.8516 167.145 14.524 167.145 16.5869H154.295C151.819 16.5869 149.812 18.5938 149.812 21.0693V40.6426C149.812 43.1181 151.819 45.125 154.295 45.125H174.615C177.091 45.125 179.098 43.1181 179.098 40.6426V37.5796L185.463 40.4085C185.699 40.5136 185.955 40.5679 186.214 40.5679C187.235 40.5679 188.062 39.7401 188.062 38.719V22.9929C188.062 21.9718 187.235 21.144 186.214 21.144ZM173.121 36.9072C173.121 38.145 172.118 39.1484 170.88 39.1484H158.03C156.792 39.1484 155.789 38.145 155.789 36.9072C155.789 35.6695 156.792 34.666 158.03 34.666H170.88C172.118 34.666 173.121 35.6694 173.121 36.9072Z" fill="white"/>
</g>
<defs>
<clipPath id="clip0_3_501">
<rect width="38.25" height="38.25" fill="white" transform="translate(149.812 6.875)"/>
</clipPath>
</defs>
</svg>
