<svg width="315" height="80" viewBox="0 0 315 80" fill="none" xmlns="http://www.w3.org/2000/svg">
<path d="M21.9844 48.6406C21.9844 46.901 22.3125 45.2812 22.9688 43.7812C23.625 42.2708 24.5729 40.9635 25.8125 39.8594C27.0625 38.7448 28.5833 37.8698 30.375 37.2344C32.1771 36.599 34.2135 36.2812 36.4844 36.2812C38.474 36.2812 40.2969 36.4844 41.9531 36.8906C43.6198 37.2865 45.1667 37.8958 46.5938 38.7188L44.3125 42.4688C43.8854 42.1875 43.3906 41.9375 42.8281 41.7188C42.276 41.5 41.6823 41.3177 41.0469 41.1719C40.4219 41.0156 39.7708 40.8958 39.0938 40.8125C38.4271 40.7292 37.7656 40.6875 37.1094 40.6875C35.526 40.6875 34.1146 40.8854 32.875 41.2812C31.6354 41.6667 30.5885 42.2135 29.7344 42.9219C28.8906 43.6198 28.2448 44.4583 27.7969 45.4375C27.3594 46.4062 27.1406 47.474 27.1406 48.6406C27.1406 49.849 27.3698 50.9583 27.8281 51.9688C28.2865 52.9792 28.9479 53.8542 29.8125 54.5938C30.6875 55.3229 31.75 55.8958 33 56.3125C34.2604 56.7188 35.6823 56.9219 37.2656 56.9219C37.9844 56.9219 38.6979 56.8698 39.4062 56.7656C40.1146 56.6615 40.7969 56.5208 41.4531 56.3438C42.1198 56.1562 42.7604 55.9375 43.375 55.6875C43.9896 55.4271 44.5625 55.1458 45.0938 54.8438L47.375 58.5938C46.0417 59.4479 44.5 60.1198 42.75 60.6094C41 61.0885 39.1406 61.3281 37.1719 61.3281C34.6615 61.3281 32.4583 61.0052 30.5625 60.3594C28.6667 59.7031 27.0833 58.8073 25.8125 57.6719C24.5417 56.526 23.5833 55.1823 22.9375 53.6406C22.3021 52.0885 21.9844 50.4219 21.9844 48.6406ZM52.2188 36.5781H57.2031V61H52.2188V36.5781ZM63.5 36.5781H68.4531L83.6719 44.5469V36.5781H88.625V61H83.6719V49.7969L68.4531 41.875V61H63.5V36.5781ZM95.5312 36.5781H116.328V40.9219H100.484V45.7969H114.516V49.875H100.484V56.6719H116.656V61H95.5312V36.5781ZM130.484 36.5781H135.734L147.547 61H142.344L140.391 56.8906H126.125L124.234 61H119.016L130.484 36.5781ZM138.438 52.8125L133.156 41.7188L128.016 52.8125H138.438ZM151.344 36.5781H163.766C165.641 36.5781 167.266 36.776 168.641 37.1719C170.016 37.5573 171.156 38.1198 172.062 38.8594C172.969 39.599 173.641 40.5 174.078 41.5625C174.526 42.625 174.75 43.8281 174.75 45.1719C174.75 46.0781 174.641 46.9427 174.422 47.7656C174.203 48.5781 173.865 49.3281 173.406 50.0156C172.958 50.7031 172.391 51.3177 171.703 51.8594C171.016 52.3906 170.208 52.8333 169.281 53.1875L174.594 61H168.531L163.938 54.0625H163.797L156.297 54.0469V61H151.344V36.5781ZM163.891 49.7656C164.828 49.7656 165.646 49.6562 166.344 49.4375C167.052 49.2188 167.641 48.9115 168.109 48.5156C168.589 48.1198 168.943 47.6406 169.172 47.0781C169.411 46.5052 169.531 45.8698 169.531 45.1719C169.531 43.8073 169.062 42.7552 168.125 42.0156C167.188 41.2656 165.776 40.8906 163.891 40.8906H156.297V49.7656H163.891ZM187.984 40.9219H178.969V36.5781H201.953V40.9219H192.938V61H187.984V40.9219Z" fill="white"/>
<g clip-path="url(#clip0_3_35)">
<path d="M292.1 32.3828C291.694 32.3828 291.293 32.468 290.922 32.6328L280.938 37.0703V32.2656C280.938 28.3824 277.789 25.2344 273.906 25.2344H271.562C271.562 16.8207 264.742 10 256.328 10H242.031C239.442 10 237.344 12.0987 237.344 14.6875C237.344 17.2763 239.442 19.375 242.031 19.375H256.328C259.564 19.375 262.188 21.9984 262.188 25.2344H242.031C238.148 25.2344 235 28.3824 235 32.2656V62.9688C235 66.852 238.148 70 242.031 70H273.906C277.789 70 280.938 66.852 280.938 62.9688V58.1641L290.922 62.6016C291.293 62.7664 291.694 62.8516 292.1 62.8516C293.702 62.8516 295 61.5531 295 59.9514V35.283C295 33.6812 293.702 32.3828 292.1 32.3828ZM271.562 57.1094C271.562 59.0511 269.989 60.625 268.047 60.625H247.891C245.949 60.625 244.375 59.0511 244.375 57.1094C244.375 55.1678 245.949 53.5938 247.891 53.5938H268.047C269.989 53.5938 271.562 55.1677 271.562 57.1094Z" fill="white"/>
</g>
<defs>
<clipPath id="clip0_3_35">
<rect width="60" height="60" fill="white" transform="translate(235 10)"/>
</clipPath>
</defs>
</svg>
