<svg width="121" height="95" viewBox="0 0 121 95" fill="none" xmlns="http://www.w3.org/2000/svg">
<path d="M118.502 6.19235H114.506V2.19612C114.506 0.997199 113.706 0.197998 112.507 0.197998H100.518C99.3194 0.197998 98.5201 0.997199 98.5201 2.19612V6.19258H78.5383V20.1799C78.5383 21.3788 77.7391 22.178 76.5402 22.178H48.5651C47.3662 22.178 46.567 21.3788 46.567 20.1799V6.19235H28.5832V2.19612C28.5832 0.997199 27.784 0.197998 26.5851 0.197998H14.5959C13.397 0.197998 12.5978 1.19717 12.5978 2.19612V6.19258H2.60676C1.40784 6.19258 0.608641 7.19176 0.608641 8.1907V14.1853C0.608641 14.585 0.808383 14.9845 1.00836 15.3842L3.20645 18.3815C4.80509 20.5796 4.80509 23.7766 3.20645 25.9747L1.00836 28.972C0.808617 29.3717 0.608641 29.7712 0.608641 30.1709V36.1655C0.608641 37.3644 1.40784 38.1636 2.60676 38.1636H10.2C12.1981 38.1636 13.9965 39.1628 14.9957 40.7612C15.9948 42.3596 16.1946 44.5577 15.1954 46.1563L1.80756 73.132C-0.590276 78.3274 0.4089 84.322 4.00565 88.9176C7.00295 92.1147 11.1992 94.113 15.9948 94.113H38.5745C42.1713 94.113 45.3683 92.1149 46.9669 88.7179C48.5656 85.3209 47.9661 81.5244 45.5683 78.9268L42.9707 76.1293C42.571 75.5298 42.571 75.1301 42.571 74.5306L47.7664 58.1455H58.3569C67.3488 58.1455 74.5423 50.952 74.5423 41.9601V38.1636H86.5314C87.7304 38.1636 88.5296 37.3644 88.5296 36.1655H112.508C113.707 36.1655 114.506 35.3663 114.506 34.1674V28.1728H118.502C119.701 28.1728 120.501 27.3736 120.501 26.1747V8.19094C120.5 7.19153 119.701 6.19235 118.502 6.19235ZM16.594 4.19423H24.5868V6.19235H16.594V4.19423ZM14.5959 18.1815H38.5743C39.7732 18.1815 40.5724 18.9807 40.5724 20.1796C40.5724 21.3786 39.7732 22.1778 38.5743 22.1778H14.5959C13.397 22.1778 12.5978 21.3786 12.5978 20.1796C12.5976 19.1807 13.397 18.1815 14.5959 18.1815ZM14.5959 30.1707C13.397 30.1707 12.5978 29.3715 12.5978 28.1726C12.5978 26.9737 13.397 26.1745 14.5959 26.1745H38.5743C39.7732 26.1745 40.5724 26.9737 40.5724 28.1726C40.5724 29.3715 39.7732 30.1707 38.5743 30.1707H14.5959ZM34.5778 52.1509C34.5778 54.349 32.7794 56.1474 30.5813 56.1474C28.3832 56.1474 26.5849 54.349 26.5849 52.1509C26.5849 49.9528 28.3832 48.1545 30.5813 48.1545C32.7794 48.1545 34.5778 49.9528 34.5778 52.1509ZM45.9675 50.7523L44.3689 55.7477L38.774 73.7314C38.774 73.9312 38.774 73.9312 38.774 74.1312C38.5743 75.7298 38.9738 77.3282 39.9729 78.5271C39.9729 78.5271 39.9729 78.7269 40.1727 78.7269L42.7703 81.7241C44.1689 83.3228 44.5686 85.3209 43.5695 87.319C42.7703 89.3171 40.9719 90.3163 38.7738 90.3163H15.9944C12.3976 90.3163 9.20057 88.9176 7.20222 86.3198C4.40467 83.1228 3.80521 78.5269 5.60358 74.7304L18.7917 48.1545C20.3903 45.1572 20.1903 41.5604 18.392 38.7629C18.1922 38.5631 18.1922 38.3631 17.9922 38.1634H25.5855L9.20034 76.5288C8.20116 78.9266 8.60088 81.7242 10.3993 83.7223C11.5982 85.3209 13.5963 86.1201 15.9941 86.1201H25.5855C28.183 86.1201 30.5809 84.5215 31.3803 81.9239L45.9671 38.1634H49.7635L45.9675 50.7523ZM26.5851 72.1328C26.5851 74.3309 24.7867 76.1293 22.5886 76.1293C20.3905 76.1293 18.5922 74.3309 18.5922 72.1328C18.5922 69.9347 20.3905 68.1363 22.5886 68.1363C24.7867 68.1366 26.5851 69.935 26.5851 72.1328ZM70.5453 41.9601C70.5453 48.7539 65.1502 54.149 58.3564 54.149H48.9648L52.5616 42.7593C54.1602 45.9564 56.7578 47.7547 61.9532 49.3534C62.1529 49.3534 62.3529 49.5531 62.5526 49.5531C63.3518 49.5531 64.1513 48.9537 64.351 48.1545C64.7507 47.1553 64.1513 45.9564 63.1521 45.5569C57.3572 43.5588 56.1583 41.9601 55.1594 38.5631C55.1594 38.3634 54.9596 38.3634 54.9596 38.1634H70.5456V41.9601H70.5453ZM110.509 32.1691H88.5291C88.5291 29.971 90.3275 28.1726 92.5256 28.1726H110.509V32.1691ZM110.509 6.19235H102.517V4.19423H110.509V6.19235Z" fill="white"/>
</svg>
