<svg width="46" height="45" viewBox="0 0 46 45" fill="none" xmlns="http://www.w3.org/2000/svg">
<path d="M18.2056 42.1002H9.95115C7.51803 42.1002 6.30145 42.1002 5.37212 41.6267C4.55465 41.2102 3.89003 40.5455 3.47353 39.7281C3 38.7988 3 37.5822 3 35.1491V14.2956C3 11.8625 3 10.6459 3.47353 9.71659C3.89003 8.89911 4.55465 8.2345 5.37212 7.81799C6.30145 7.34447 7.51803 7.34447 9.95115 7.34447H35.1491C37.5822 7.34447 38.7988 7.34447 39.7281 7.81799C40.5455 8.2345 41.2102 8.89911 41.6267 9.71659C42.1002 10.6459 42.1002 11.8625 42.1002 14.2956V18.2056M11.6889 3V7.34447M33.4113 3V7.34447M3 16.0334H42.1002M25.8085 24.7226L11.6889 24.7223M18.2056 33.4115L11.6889 33.4113M26.8946 42.1002L31.2933 41.2205C31.6767 41.1438 31.8686 41.1053 32.0473 41.0352C32.2061 40.973 32.3571 40.8922 32.4968 40.7947C32.6545 40.6848 32.7926 40.5466 33.0694 40.2699L42.1002 31.239C43.2999 30.0393 43.2999 28.0943 42.1002 26.8946C40.9005 25.6948 38.9555 25.6948 37.7557 26.8946L28.7249 35.9254C28.4482 36.2022 28.31 36.3403 28.2001 36.498C28.1026 36.6377 28.0217 36.7887 27.9596 36.9475C27.8895 37.1262 27.851 37.318 27.7743 37.7014L26.8946 42.1002Z" stroke="white" stroke-width="5" stroke-linecap="round" stroke-linejoin="round"/>
</svg>
