<svg width="40" height="40" viewBox="0 0 40 40" fill="none" xmlns="http://www.w3.org/2000/svg">
<path d="M3.33496 19.9983H26.6683M26.6683 19.9983L20.835 14.9984M26.6683 19.9983L20.835 24.9983" stroke="white" stroke-width="3.75" stroke-linecap="round" stroke-linejoin="round"/>
<path d="M15.0032 11.6667C15.0234 8.04163 15.1842 6.07844 16.4648 4.79781C17.9293 3.33334 20.2863 3.33334 25.0003 3.33334H26.667C31.381 3.33334 33.7382 3.33334 35.2025 4.79781C36.667 6.26228 36.667 8.61929 36.667 13.3333V26.6667C36.667 31.3807 36.667 33.7377 35.2025 35.2022C33.9218 36.4828 31.9587 36.6437 28.3333 36.6638M15.0032 28.3333C15.0234 31.9583 15.1842 33.9215 16.4648 35.2022C17.5337 36.271 19.0778 36.5598 21.6667 36.6378" stroke="white" stroke-width="3.75" stroke-linecap="round"/>
</svg>
