<svg width="414" height="94" viewBox="0 0 414 94" fill="none" xmlns="http://www.w3.org/2000/svg">
<path d="M3.46875 36.5356H16.3438C18.2188 36.5356 19.8438 36.7388 21.2188 37.145C22.5938 37.5513 23.7344 38.1398 24.6406 38.9106C25.5469 39.6711 26.2188 40.6034 26.6562 41.7075C27.1042 42.8117 27.3281 44.0565 27.3281 45.4419C27.3281 46.744 27.1094 47.9471 26.6719 49.0513C26.2344 50.1554 25.5625 51.1138 24.6562 51.9263C23.7604 52.7284 22.625 53.3586 21.25 53.8169C19.875 54.2648 18.25 54.4888 16.375 54.4888L8.42188 54.4731V60.9575H3.46875V36.5356ZM16.4688 50.1919C17.4062 50.1919 18.224 50.0825 18.9219 49.8638C19.6302 49.6346 20.2188 49.3169 20.6875 48.9106C21.1667 48.494 21.5208 47.994 21.75 47.4106C21.9896 46.8169 22.1094 46.1606 22.1094 45.4419C22.1094 43.994 21.6354 42.869 20.6875 42.0669C19.75 41.2544 18.3438 40.8481 16.4688 40.8481H8.42188V50.1919H16.4688ZM32.75 36.5356H45.1719C47.0469 36.5356 48.6719 36.7336 50.0469 37.1294C51.4219 37.5148 52.5625 38.0773 53.4688 38.8169C54.375 39.5565 55.0469 40.4575 55.4844 41.52C55.9323 42.5825 56.1562 43.7856 56.1562 45.1294C56.1562 46.0356 56.0469 46.9002 55.8281 47.7231C55.6094 48.5356 55.2708 49.2856 54.8125 49.9731C54.3646 50.6606 53.7969 51.2752 53.1094 51.8169C52.4219 52.3481 51.6146 52.7909 50.6875 53.145L56 60.9575H49.9375L45.3438 54.02H45.2031L37.7031 54.0044V60.9575H32.75V36.5356ZM45.2969 49.7231C46.2344 49.7231 47.0521 49.6138 47.75 49.395C48.4583 49.1763 49.0469 48.869 49.5156 48.4731C49.9948 48.0773 50.349 47.5981 50.5781 47.0356C50.8177 46.4627 50.9375 45.8273 50.9375 45.1294C50.9375 43.7648 50.4688 42.7127 49.5312 41.9731C48.5938 41.2231 47.1823 40.8481 45.2969 40.8481H37.7031V49.7231H45.2969ZM60.5938 48.6763C60.5938 46.8325 60.9323 45.145 61.6094 43.6138C62.2865 42.0825 63.2344 40.77 64.4531 39.6763C65.6823 38.5721 67.151 37.7179 68.8594 37.1138C70.5781 36.5096 72.4792 36.2075 74.5625 36.2075C76.6354 36.2075 78.5312 36.5096 80.25 37.1138C81.9688 37.7179 83.4375 38.5721 84.6562 39.6763C85.8854 40.77 86.8385 42.0825 87.5156 43.6138C88.1927 45.145 88.5312 46.8325 88.5312 48.6763C88.5312 50.5304 88.1927 52.2336 87.5156 53.7856C86.8385 55.3273 85.8854 56.6554 84.6562 57.77C83.4375 58.8846 81.9688 59.7544 80.25 60.3794C78.5312 60.994 76.6354 61.3013 74.5625 61.3013C72.4792 61.3013 70.5781 60.994 68.8594 60.3794C67.151 59.7544 65.6823 58.8846 64.4531 57.77C63.2344 56.6554 62.2865 55.3273 61.6094 53.7856C60.9323 52.2336 60.5938 50.5304 60.5938 48.6763ZM65.5469 48.6763C65.5469 49.9367 65.7708 51.0721 66.2188 52.0825C66.6771 53.0929 67.3073 53.9575 68.1094 54.6763C68.9219 55.3846 69.875 55.9315 70.9688 56.3169C72.0729 56.7023 73.2708 56.895 74.5625 56.895C75.8542 56.895 77.0469 56.7023 78.1406 56.3169C79.2448 55.9315 80.1979 55.3846 81 54.6763C81.8021 53.9575 82.4323 53.0929 82.8906 52.0825C83.349 51.0721 83.5781 49.9367 83.5781 48.6763C83.5781 47.4159 83.349 46.2856 82.8906 45.2856C82.4323 44.2856 81.8021 43.4419 81 42.7544C80.1979 42.0565 79.2448 41.5252 78.1406 41.1606C77.0469 40.7961 75.8542 40.6138 74.5625 40.6138C73.2708 40.6138 72.0729 40.7961 70.9688 41.1606C69.875 41.5252 68.9219 42.0565 68.1094 42.7544C67.3073 43.4419 66.6771 44.2856 66.2188 45.2856C65.7708 46.2856 65.5469 47.4159 65.5469 48.6763ZM101.391 40.8794H92.375V36.5356H115.359V40.8794H106.344V60.9575H101.391V40.8794ZM120.656 36.5356H141.453V40.8794H125.609V45.7544H139.641V49.8325H125.609V56.6294H141.781V60.9575H120.656V36.5356ZM154.641 40.8794H145.625V36.5356H168.609V40.8794H159.594V60.9575H154.641V40.8794ZM172.469 48.6763C172.469 46.8325 172.807 45.145 173.484 43.6138C174.161 42.0825 175.109 40.77 176.328 39.6763C177.557 38.5721 179.026 37.7179 180.734 37.1138C182.453 36.5096 184.354 36.2075 186.438 36.2075C188.51 36.2075 190.406 36.5096 192.125 37.1138C193.844 37.7179 195.312 38.5721 196.531 39.6763C197.76 40.77 198.714 42.0825 199.391 43.6138C200.068 45.145 200.406 46.8325 200.406 48.6763C200.406 50.5304 200.068 52.2336 199.391 53.7856C198.714 55.3273 197.76 56.6554 196.531 57.77C195.312 58.8846 193.844 59.7544 192.125 60.3794C190.406 60.994 188.51 61.3013 186.438 61.3013C184.354 61.3013 182.453 60.994 180.734 60.3794C179.026 59.7544 177.557 58.8846 176.328 57.77C175.109 56.6554 174.161 55.3273 173.484 53.7856C172.807 52.2336 172.469 50.5304 172.469 48.6763ZM177.422 48.6763C177.422 49.9367 177.646 51.0721 178.094 52.0825C178.552 53.0929 179.182 53.9575 179.984 54.6763C180.797 55.3846 181.75 55.9315 182.844 56.3169C183.948 56.7023 185.146 56.895 186.438 56.895C187.729 56.895 188.922 56.7023 190.016 56.3169C191.12 55.9315 192.073 55.3846 192.875 54.6763C193.677 53.9575 194.307 53.0929 194.766 52.0825C195.224 51.0721 195.453 49.9367 195.453 48.6763C195.453 47.4159 195.224 46.2856 194.766 45.2856C194.307 44.2856 193.677 43.4419 192.875 42.7544C192.073 42.0565 191.12 41.5252 190.016 41.1606C188.922 40.7961 187.729 40.6138 186.438 40.6138C185.146 40.6138 183.948 40.7961 182.844 41.1606C181.75 41.5252 180.797 42.0565 179.984 42.7544C179.182 43.4419 178.552 44.2856 178.094 45.2856C177.646 46.2856 177.422 47.4159 177.422 48.6763ZM205.906 36.5356H218.328C220.203 36.5356 221.828 36.7336 223.203 37.1294C224.578 37.5148 225.719 38.0773 226.625 38.8169C227.531 39.5565 228.203 40.4575 228.641 41.52C229.089 42.5825 229.312 43.7856 229.312 45.1294C229.312 46.0356 229.203 46.9002 228.984 47.7231C228.766 48.5356 228.427 49.2856 227.969 49.9731C227.521 50.6606 226.953 51.2752 226.266 51.8169C225.578 52.3481 224.771 52.7909 223.844 53.145L229.156 60.9575H223.094L218.5 54.02H218.359L210.859 54.0044V60.9575H205.906V36.5356ZM218.453 49.7231C219.391 49.7231 220.208 49.6138 220.906 49.395C221.615 49.1763 222.203 48.869 222.672 48.4731C223.151 48.0773 223.505 47.5981 223.734 47.0356C223.974 46.4627 224.094 45.8273 224.094 45.1294C224.094 43.7648 223.625 42.7127 222.688 41.9731C221.75 41.2231 220.339 40.8481 218.453 40.8481H210.859V49.7231H218.453ZM245.188 36.5356H250.172V60.9575H245.188V36.5356ZM255.875 36.5356H260.859V60.9575H255.875V36.5356ZM266.562 36.5356H271.547V60.9575H266.562V36.5356Z" fill="white"/>
<path d="M412.001 5.99435H408.005V1.99812C408.005 0.7992 407.206 0 406.007 0H394.018C392.819 0 392.02 0.7992 392.02 1.99812V5.99459H372.038V19.9819C372.038 21.1808 371.238 21.98 370.04 21.98H342.064C340.866 21.98 340.066 21.1808 340.066 19.9819V5.99435H322.083V1.99812C322.083 0.7992 321.283 0 320.084 0H308.095C306.896 0 306.097 0.999176 306.097 1.99812V5.99459H296.106C294.907 5.99459 294.108 6.99376 294.108 7.9927V13.9873C294.108 14.387 294.308 14.7865 294.508 15.1862L296.706 18.1835C298.304 20.3816 298.304 23.5786 296.706 25.7767L294.508 28.774C294.308 29.1737 294.108 29.5732 294.108 29.9729V35.9675C294.108 37.1664 294.907 37.9656 296.106 37.9656H303.699C305.697 37.9656 307.496 38.9648 308.495 40.5632C309.494 42.1616 309.694 44.3597 308.695 45.9583L295.307 72.934C292.909 78.1294 293.908 84.124 297.505 88.7197C300.502 91.9167 304.699 93.915 309.494 93.915H332.074C335.671 93.915 338.868 91.9169 340.466 88.5199C342.065 85.1229 341.466 81.3264 339.068 78.7288L336.47 75.9313C336.07 75.3318 336.07 74.9321 336.07 74.3326L341.266 57.9475H351.856C360.848 57.9475 368.042 50.754 368.042 41.7621V37.9656H380.031C381.23 37.9656 382.029 37.1664 382.029 35.9675H406.007C407.206 35.9675 408.005 35.1683 408.005 33.9694V27.9748H412.002C413.201 27.9748 414 27.1756 414 25.9767V7.99294C414 6.99353 413.2 5.99435 412.001 5.99435ZM310.093 3.99623H318.086V5.99435H310.093V3.99623ZM308.095 17.9835H332.074C333.273 17.9835 334.072 18.7827 334.072 19.9816C334.072 21.1806 333.273 21.9798 332.074 21.9798H308.095C306.896 21.9798 306.097 21.1806 306.097 19.9816C306.097 18.9827 306.896 17.9835 308.095 17.9835ZM308.095 29.9727C306.896 29.9727 306.097 29.1735 306.097 27.9746C306.097 26.7757 306.896 25.9765 308.095 25.9765H332.074C333.273 25.9765 334.072 26.7757 334.072 27.9746C334.072 29.1735 333.273 29.9727 332.074 29.9727H308.095ZM328.077 51.9529C328.077 54.151 326.279 55.9494 324.081 55.9494C321.883 55.9494 320.084 54.151 320.084 51.9529C320.084 49.7548 321.883 47.9565 324.081 47.9565C326.279 47.9565 328.077 49.7548 328.077 51.9529ZM339.467 50.5543L337.868 55.5497L332.273 73.5334C332.273 73.7332 332.273 73.7332 332.273 73.9332C332.074 75.5318 332.473 77.1302 333.472 78.3291C333.472 78.3291 333.472 78.5289 333.672 78.5289L336.27 81.5261C337.668 83.1248 338.068 85.1229 337.069 87.121C336.27 89.1191 334.471 90.1183 332.273 90.1183H309.494C305.897 90.1183 302.7 88.7197 300.702 86.1218C297.904 82.9248 297.305 78.3289 299.103 74.5324L312.291 47.9565C313.89 44.9592 313.69 41.3624 311.891 38.5649C311.692 38.3651 311.692 38.1651 311.492 37.9654H319.085L302.7 76.3308C301.701 78.7286 302.1 81.5262 303.899 83.5243C305.098 85.1229 307.096 85.9221 309.494 85.9221H319.085C321.682 85.9221 324.08 84.3235 324.88 81.7259L339.466 37.9654H343.263L339.467 50.5543ZM320.084 71.9348C320.084 74.1329 318.286 75.9313 316.088 75.9313C313.89 75.9313 312.092 74.1329 312.092 71.9348C312.092 69.7367 313.89 67.9383 316.088 67.9383C318.286 67.9386 320.084 69.737 320.084 71.9348ZM364.045 41.7621C364.045 48.5559 358.65 53.951 351.856 53.951H342.464L346.061 42.5613C347.66 45.7584 350.257 47.5567 355.453 49.1554C355.652 49.1554 355.852 49.3551 356.052 49.3551C356.851 49.3551 357.651 48.7557 357.85 47.9565C358.25 46.9573 357.651 45.7584 356.651 45.3589C350.857 43.3608 349.658 41.7621 348.659 38.3651C348.659 38.1654 348.459 38.1654 348.459 37.9654H364.045V41.7621H364.045ZM404.009 31.9711H382.028C382.028 29.773 383.827 27.9746 386.025 27.9746H404.009V31.9711ZM404.009 5.99435H396.016V3.99623H404.009V5.99435Z" fill="white"/>
</svg>
