<svg width="28" height="28" viewBox="0 0 28 28" fill="none" xmlns="http://www.w3.org/2000/svg">
<path d="M0.5 0.5V28H28V0.5H0.5ZM5.5 25.5H3V23H5.5V25.5ZM5.5 21.75H3V19.25H5.5V21.75ZM5.5 18H3V15.5H5.5V18ZM5.5 13H3V10.5H5.5V13ZM5.5 9.25H3V6.75H5.5V9.25ZM5.5 5.5H3V3H5.5V5.5ZM20.5 25.5H8V15.5H20.5V25.5ZM20.5 13H8V3H20.5V13ZM25.5 25.5H23V23H25.5V25.5ZM25.5 21.75H23V19.25H25.5V21.75ZM25.5 18H23V15.5H25.5V18ZM25.5 13H23V10.5H25.5V13ZM25.5 9.25H23V6.75H25.5V9.25ZM25.5 5.5H23V3H25.5V5.5Z" fill="white"/>
</svg>
