<svg width="40" height="32" viewBox="0 0 40 32" fill="none" xmlns="http://www.w3.org/2000/svg">
<path d="M39.3338 1.99812H38.0016V0.666039C38.0016 0.2664 37.7353 0 37.3356 0H33.3392C32.9396 0 32.6732 0.2664 32.6732 0.666039V1.9982H26.0126V6.66063C26.0126 7.06027 25.7462 7.32667 25.3465 7.32667H16.0215C15.6219 7.32667 15.3555 7.06027 15.3555 6.66063V1.99812H9.36087V0.666039C9.36087 0.2664 9.09447 0 8.69483 0H4.69844C4.2988 0 4.0324 0.333059 4.0324 0.666039V1.9982H0.70205C0.30241 1.9982 0.0360103 2.33125 0.0360103 2.66423V4.66243C0.0360103 4.79567 0.102591 4.92883 0.169249 5.06207L0.901947 6.06117C1.43483 6.79387 1.43483 7.85954 0.901947 8.59224L0.169249 9.59134C0.102669 9.72458 0.0360103 9.85774 0.0360103 9.99098V11.9892C0.0360103 12.3888 0.30241 12.6552 0.70205 12.6552H3.23312C3.89916 12.6552 4.49862 12.9883 4.83168 13.5211C5.16474 14.0539 5.23132 14.7866 4.89826 15.3194L0.435649 24.3113C-0.363629 26.0431 -0.0305701 28.0413 1.16835 29.5732C2.16745 30.6389 3.56618 31.305 5.16474 31.305H12.6913C13.8902 31.305 14.9559 30.639 15.4888 29.5066C16.0217 28.3743 15.8218 27.1088 15.0226 26.2429L14.1567 25.3104C14.0235 25.1106 14.0235 24.9774 14.0235 24.7775L15.7553 19.3158H19.2854C22.2827 19.3158 24.6806 16.918 24.6806 13.9207V12.6552H28.6769C29.0766 12.6552 29.343 12.3888 29.343 11.9892H37.3358C37.7354 11.9892 38.0018 11.7228 38.0018 11.3231V9.32494H39.334C39.7336 9.32494 40 9.05854 40 8.6589V2.66431C39.9998 2.33118 39.7334 1.99812 39.3338 1.99812ZM5.36448 1.33208H8.02872V1.99812H5.36448V1.33208ZM4.69844 5.99451H12.6912C13.0909 5.99451 13.3573 6.26091 13.3573 6.66055C13.3573 7.06019 13.0909 7.32659 12.6912 7.32659H4.69844C4.2988 7.32659 4.0324 7.06019 4.0324 6.66055C4.03232 6.32757 4.2988 5.99451 4.69844 5.99451ZM4.69844 9.9909C4.2988 9.9909 4.0324 9.7245 4.0324 9.32486C4.0324 8.92522 4.2988 8.65882 4.69844 8.65882H12.6912C13.0909 8.65882 13.3573 8.92522 13.3573 9.32486C13.3573 9.7245 13.0909 9.9909 12.6912 9.9909H4.69844ZM11.3591 17.3176C11.3591 18.0503 10.7596 18.6498 10.0269 18.6498C9.29421 18.6498 8.69475 18.0503 8.69475 17.3176C8.69475 16.5849 9.29421 15.9855 10.0269 15.9855C10.7596 15.9855 11.3591 16.5849 11.3591 17.3176ZM15.1556 16.8514L14.6228 18.5166L12.7578 24.5111C12.7578 24.5777 12.7578 24.5777 12.7578 24.6444C12.6912 25.1773 12.8244 25.7101 13.1574 26.1097C13.1574 26.1097 13.1574 26.1763 13.224 26.1763L14.0899 27.1754C14.5561 27.7083 14.6893 28.3743 14.3563 29.0403C14.0899 29.7064 13.4904 30.0394 12.7577 30.0394H5.16458C3.96567 30.0394 2.89999 29.5732 2.23387 28.7073C1.30135 27.6416 1.10153 26.1096 1.70099 24.8441L6.09702 15.9855C6.6299 14.9864 6.56324 13.7875 5.96378 12.855C5.8972 12.7884 5.8972 12.7217 5.83054 12.6551H8.36162L2.89991 25.4436C2.56685 26.2429 2.70009 27.1754 3.29955 27.8414C3.69919 28.3743 4.36523 28.6407 5.1645 28.6407H8.36162C9.22748 28.6407 10.0268 28.1078 10.2932 27.242L15.1555 12.6551H16.421L15.1556 16.8514ZM8.69483 23.9783C8.69483 24.711 8.09537 25.3104 7.36268 25.3104C6.62998 25.3104 6.03052 24.711 6.03052 23.9783C6.03052 23.2456 6.62998 22.6461 7.36268 22.6461C8.09537 22.6462 8.69483 23.2457 8.69483 23.9783ZM23.3482 13.9207C23.3482 16.1853 21.5499 17.9837 19.2853 17.9837H16.1547L17.3537 14.1871C17.8865 15.2528 18.7524 15.8522 20.4842 16.3851C20.5508 16.3851 20.6174 16.4517 20.684 16.4517C20.9504 16.4517 21.2169 16.2519 21.2835 15.9855C21.4167 15.6524 21.2169 15.2528 20.8838 15.1196C18.9522 14.4536 18.5526 13.9207 18.2196 12.7884C18.2196 12.7218 18.153 12.7218 18.153 12.6551H23.3483V13.9207H23.3482ZM36.6696 10.657H29.3428C29.3428 9.92432 29.9423 9.32486 30.675 9.32486H36.6696V10.657ZM36.6696 1.99812H34.0053V1.33208H36.6696V1.99812Z" fill="#B5121B"/>
</svg>
